<?xml version="1.0" encoding="utf-8"?>
<!-- Generator: Adobe Illustrator 22.0.0, SVG Export Plug-In . SVG Version: 6.00 Build 0)  -->
<svg version="1.1" id="Layer_1" xmlns="http://www.w3.org/2000/svg" xmlns:xlink="http://www.w3.org/1999/xlink" x="0px" y="0px"
	 viewBox="0 0 1366 768" style="enable-background:new 0 0 1366 768;" xml:space="preserve">
<style type="text/css">
	.st0{fill:none;}
</style>
<g>
	<path d="M786.9,332c0.7,9.7,1,21,0,33.5c-1.1,14.9-3.7,27.8-6.5,38.5c-1.2,3.9-3.5,8.6-8,11c-4.5,2.4-7.5,0.3-11.5,3
		c-4,2.7-3.6,6.6-7,12.5c-1.9,3.4-5.3,7.9-11.5,12c-6.3-9.9-8.8-18-10-23.8c-0.7-3.5-1.5-9.2-5.3-10.8c-2.2-1-3.7,0.2-7.8-0.3
		c-0.9-0.1-5.4-0.7-9-3.3c-4.8-3.6-3.3-7.4-8.8-13.5c-2.1-2.2-3.8-4.1-6.7-5.2c-6.6-2.5-14.1,1.1-16.8,2.3c-3.4,1.6-3.1,2.2-5.2,2.7
		c-0.1,0-0.2,0-0.3,0c-0.1,0-0.2,0-0.3,0c-2.1-0.5-1.8-1.1-5.2-2.7c-2.7-1.3-10.2-4.8-16.8-2.3c-2.9,1.1-4.6,2.9-6.7,5.2
		c-5.6,6.1-4,9.9-8.8,13.5c-3.6,2.7-8.1,3.2-9,3.3c-4.1,0.5-5.6-0.6-7.8,0.3c-3.8,1.7-4.6,7.3-5.3,10.8c-1.2,5.8-3.7,13.9-10,23.8
		c-6.2-4.1-9.6-8.6-11.5-12c-3.4-5.9-3-9.8-7-12.5c-4-2.7-7-0.6-11.5-3c-4.5-2.4-6.8-7.1-8-11c-2.8-10.7-5.4-23.6-6.5-38.5
		c-1-12.5-0.7-23.8,0-33.5c-4.7,13.9-9.9,34.6-10,60c-0.1,21.3,3.4,39.1,7,52c2.5,11,16,70.3,30.5,107.5c2.2,5.7,5.9,14.5,14,23
		c10.5,10.9,22.2,14.9,35,19c14.1,4.6,27,6.3,37.7,6.7c0,0,0,0,0,0c0.1,0,0.2,0,0.2,0c0.1,0,0.2,0,0.2,0c0,0,0,0,0,0
		c10.7-0.5,23.6-2.2,37.7-6.7c12.8-4.1,24.5-8.1,35-19c8.1-8.5,11.8-17.3,14-23c14.5-37.2,28-96.5,30.5-107.5
		c3.6-12.9,7.1-30.7,7-52C796.8,366.6,791.6,345.9,786.9,332z M710.3,429.1c-1,1.3-3.6-0.4-7,0.9c-1.9,0.7-1.6,1.4-4.1,2.8
		c-1.6,0.9-4.3,2.3-7.1,1.9c-2.8-0.4-3.1-2.3-6.5-4.1c-1.8-1-3.9-1.2-7.9-1.8c-1.1-0.1-2.1-0.3-3.1-0.4c-2.4,0.1-5.9,0.2-7,0.4
		c-4,0.5-6.1,0.8-7.9,1.8c-3.4,1.8-3.7,3.7-6.5,4.1c-0.4,0.1-0.8,0.1-1.2,0.1c-2.5,0.1-4.8-1.2-6.2-1.9c-2.5-1.4-2.2-2.1-4.1-2.8
		c-1-0.4-2-0.5-2.8-0.5c-1,0-1.9,0.2-2.6,0.1c-0.7,0-1.2-0.1-1.6-0.5c-0.8-1,0.3-3,0.5-3.5c2.1-4,6.9-5.3,13.5-7.1
		c1.2-0.3,7.5-2,14.4-1.9c0.5,0,1.1,0,1.6,0c4.2,0.2,5.8,0.9,6.3,1.1c0.5,0.2,0.9,0.5,1.3,0.8l0.4,0.2c0.4-0.3,1-0.7,1.6-1
		c0.5-0.2,2-1,6.3-1.1c7.5-0.3,14.5,1.5,15.8,1.9c6.6,1.8,11.4,3.1,13.5,7.1C710.1,426.1,711.1,428.1,710.3,429.1z"/>
	<path d="M664.7,375.6c-0.5-0.8-1.3-2-2.8-3c-0.5-0.4-4.2-2.8-7.8-1.3c-3.4,1.5-5.6,6.4-3.6,9.4c1.2,1.8,3.7,2.7,6.4,2.4
		c-1.4-1.5-1.9-3.4-1.3-4.6c0.6-1.3,2.3-1.5,3.8-1.8c3.1-0.7,5.6,0.3,6.5,0.7L664.7,375.6z"/>
	<path d="M684.4,375.6c0.5-0.8,1.3-2,2.8-3c0.5-0.4,4.2-2.8,7.8-1.3c3.4,1.5,5.6,6.4,3.6,9.4c-1.2,1.8-3.7,2.7-6.4,2.4
		c1.4-1.5,1.9-3.4,1.3-4.6c-0.6-1.3-2.3-1.5-3.8-1.8c-3.1-0.7-5.6,0.3-6.5,0.7L684.4,375.6z"/>
	<path d="M773.1,225.9c-2-4.4-6.6-13.6-14.9-23.4c-19.4-22.8-52.6-41.2-86.3-39.3c-34.5-1.9-68.6,16.5-88.5,39.3
		c-8.5,9.7-13.2,19-15.3,23.4c-10.9,23-10.1,44.4-9,55.1c-0.7-6.7-1-17.8,3.5-30.3c5.1-14.2,13.6-22.9,21.8-31.1
		c9.3-9.4,18.4-18.8,33.9-24.8c9.2-3.5,27.3-10.5,38.9-3.2c2.3,1.5,5.5,3.2,11,4.2c1,0.2,1.8,0.3,2.6,0.3c0.7,0,1.4,0,2.1,0
		c0.7,0,1.5-0.1,2.5-0.3c5.3-1,8.4-2.8,10.7-4.2c11.3-7.3,29-0.3,38,3.2c15.2,6,24,15.4,33.1,24.8c8,8.3,16.3,16.9,21.2,31.1
		c4.3,12.5,4.1,23.6,3.4,30.3C783,270.3,783.7,249,773.1,225.9z"/>
	<g>
		<path d="M589.7,316.5c10,2.6,17.8,7,34.8,5.3c7.8-0.8,21.2-4.2,27-5.9l-3.2-3c-1.6-1.9-4-4.5-7.5-6.9c-4.1-2.9-16.6-10.3-31.2-5.9
			C597.2,303.9,591.1,313.9,589.7,316.5z M596.8,314.1c9.4-10.3,22.6-14.5,33.6-10.7c6.6,2.3,10.7,6.9,12.8,9.8
			c-1.7,0.9-3.4,1.7-5.2,2.4c-6.8,2.5-18,5.2-30.7,2.3C603.2,316.9,599.7,315.5,596.8,314.1z"/>
		
			<ellipse transform="matrix(0.9991 -4.273278e-02 4.273278e-02 0.9991 -12.7031 26.7919)" cx="620.3" cy="310.5" rx="10.3" ry="8.8"/>
		<path d="M650.4,314.9c-2.5-5.4-6.4-10.2-11.2-13.9c-2.4-1.8-5-3.5-7.7-4.8c-2.8-1.3-5.8-2.2-8.8-2.8c-3.1-0.5-6.2-0.5-9.3-0.1
			c-3.1,0.5-6,1.4-8.8,2.7c-2.8,1.3-5.3,3.1-7.5,5.1c-2.2,2.1-4.2,4.4-5.7,6.9c2-2.2,4.3-4.1,6.6-5.7c2.4-1.7,4.9-3.1,7.5-4.1
			c5.3-2.1,11.1-2.8,16.6-1.8c5.6,0.9,10.8,3.3,15.7,6.5C642.6,306.1,646.9,310.2,650.4,314.9z"/>
	</g>
	<g>
		<path d="M738.6,300.1c-14.6-4.4-27.1,3-31.2,5.8c-3.5,2.4-6,5-7.5,6.8l-3.2,2.9c5.8,1.7,21,6.1,28.8,6.1c18,0,23-3,33-5.6
			C757,313.6,750.9,303.8,738.6,300.1z M740.9,317.5c-12.7,2.9-23.9,0.2-30.7-2.2c-1.8-0.6-3.5-1.4-5.2-2.3
			c2.1-2.8,6.2-7.4,12.8-9.7c11-3.8,24.2,0.4,33.6,10.6C748.4,315.3,744.9,316.6,740.9,317.5z"/>
		
			<ellipse transform="matrix(3.999653e-02 -0.9992 0.9992 3.999653e-02 388.6115 1025.1523)" cx="727.8" cy="310.3" rx="8.7" ry="10.3"/>
		<path d="M697.7,314.7c2.5-5.4,6.4-10.1,11.2-13.8c2.4-1.8,5-3.4,7.7-4.7c2.8-1.3,5.8-2.2,8.8-2.7c3.1-0.5,6.2-0.5,9.3-0.1
			c3.1,0.5,6,1.4,8.8,2.7c2.8,1.3,5.3,3.1,7.5,5.1c2.2,2,4.2,4.3,5.7,6.8c-2-2.1-4.3-4-6.6-5.7c-2.4-1.7-4.9-3-7.5-4.1
			c-5.3-2-11.1-2.7-16.6-1.8c-5.6,0.9-10.8,3.3-15.7,6.4C705.5,305.9,701.3,310,697.7,314.7z"/>
	</g>
	<g>
		<path d="M657.5,281c0,0,0,0-0.1,0c0,0-0.1,0-0.1,0L657.5,281z"/>
		<path d="M656.8,280.7c-0.1,0-0.3,0-0.3,0.1C656.6,280.7,656.7,280.8,656.8,280.7c0.2,0.1,0.3,0.2,0.3,0.2c0,0,0.2,0.1,0.3,0.1
			C657.1,280.9,656.9,280.8,656.8,280.7C656.7,280.7,656.7,280.7,656.8,280.7z"/>
		<path d="M645.7,275.2l0,0.1C645.7,275.3,645.7,275.2,645.7,275.2z"/>
		<path d="M638.4,272.4c0.1,0,0.1-0.1,0.1-0.2C638.4,272.2,638.4,272.3,638.4,272.4z"/>
		<path d="M637.3,270.9C637.3,270.9,637.3,270.9,637.3,270.9C637.4,270.8,637.3,270.8,637.3,270.9z"/>
		<path d="M645.7,275.2l-0.1-0.3C645.5,275.1,645.6,275.1,645.7,275.2z"/>
		<path d="M655,280.4c0,0,0.1,0,0.1,0L655,280.4L655,280.4z"/>
		<path d="M649,276L649,276c0.1,0,0.1-0.1,0.2-0.2L649,276z"/>
		<path d="M651.4,277.1c0,0-0.2,0.3-0.3,0.5c0.1-0.2,0.2-0.2,0.2-0.2C651.3,277.3,651.3,277.2,651.4,277.1z"/>
		<path d="M654.8,279.5L654.8,279.5C654.8,279.5,654.8,279.5,654.8,279.5z"/>
		<path d="M647.3,275.1c0-0.1,0-0.2,0-0.2C647.3,274.9,647.3,275,647.3,275.1z"/>
		<path d="M580,290.6C580,290.6,580,290.5,580,290.6C580,290.6,580,290.6,580,290.6z"/>
		<polygon points="577.2,291.8 577.2,291.8 577.3,291.8 		"/>
		<path d="M635.1,269C635.1,269,635.1,269,635.1,269C635.2,268.9,635.1,268.9,635.1,269z"/>
		<path d="M611.9,269.2c0.4,1-0.2,1.4,0.4,2.5C612.1,271.3,612.3,269.8,611.9,269.2z"/>
		<path d="M655,280.4l-0.1,0C654.9,280.4,654.9,280.4,655,280.4z"/>
		<path d="M612.3,271.7L612.3,271.7l0.1,0.1C612.3,271.8,612.3,271.8,612.3,271.7z"/>
		<path d="M629.3,268.6c0,0.2,0,0.3,0,0.5C629.3,268.9,629.3,268.8,629.3,268.6z"/>
		<path d="M633.3,270.7l-0.1-0.2C633.3,270.7,633.3,270.7,633.3,270.7z"/>
		<path d="M627,269.9c-0.1-0.1-0.1-0.3-0.2-0.1c0,0.1,0,0.1,0,0.1C626.9,269.8,626.9,269.7,627,269.9z"/>
		<path d="M624.7,269.8c0,0.1,0,0.2,0,0.2l0.1-0.1L624.7,269.8z"/>
		<path d="M586,287.6c-0.1-0.1-0.3-0.2-0.4-0.4C585.9,287.5,585.7,287.8,586,287.6z"/>
		<path d="M655.1,280.3C655,280.4,655,280.4,655.1,280.3L655.1,280.3C655.1,280.4,655.1,280.4,655.1,280.3z"/>
		<path d="M626.5,278.9c-0.1-0.1-0.2-0.1-0.3-0.2C626.3,278.9,626.4,278.9,626.5,278.9z"/>
		<path d="M600.1,282l0,0.1C600.1,282.2,600.1,282.2,600.1,282z"/>
		<path d="M625.2,279c0-0.4-0.1-0.6-0.2-0.8c0,0.1,0,0.2,0,0.3L625.2,279z"/>
		<path d="M585.6,287.2L585.6,287.2L585.6,287.2z"/>
		<path d="M584.2,289.1c0.3-0.1-0.2-0.5-0.3-0.8c0.2-0.3,0.4,0.3,0.7,0.5c0.1-0.2,0-0.8,0.1-0.8c0.1,0.1,0.1,0.1,0.2,0.2
			c-0.1-0.5,0.7-0.3,0.5-1c0.1,0,0.1,0.1,0.1,0.1c-0.2-0.3-0.5-0.6-0.6-0.8c0.1-0.1,0-0.5,0.3-0.2c-0.1,0,0,0.2,0.1,0.3l0-0.2
			c0.5,0.5,0,0.3,0.2,0.7c0.1-0.3,0.1-1,0.4-0.9c0.4,0.6-0.3,0.4,0.3,0.8l-0.5-0.1c0.9,0.7-0.2,0,0.6,0.9c0.5,0,0.3-0.5,0.8-0.5
			c-0.1-0.4-0.4-0.5-0.5-0.9c0.2-0.9,1.5,1.3,1.4,0.3c-0.2-0.5-0.7-1.3-0.1-1.1l0.4,0.8c0.5-0.1-0.5-1.2,0.3-0.9
			c0.1,0.3-0.2,0.4,0,0.5c0.7,0.5-0.1-0.5,0.1-0.6l0.5,0.7c0.4-0.3,0.5-1,0.9-1.4c0.1,0.2,0.2,0.5,0.4,0.7c0.4-0.7,1.4-0.4,2.2-0.1
			l-0.2-0.8c0.1,0,0.3,0.3,0.3,0.5c0.4,0.2-0.3-0.5-0.3-0.8c0.1-0.1,0.4,0.4,0.5,0.6c0.1-0.8,0.4-1.9,1.3-1.2l0,0.3
			c0.5,0.2-0.5-1.9,0.2-1.2l0,0.2c0.9,0.1,1.3-1.1,2.5,0.1c-0.5-1.4,1,0.4,0.2-1.5c0.8,0.8,0.9,1.2,1.7,1.6c0.2,0-0.3-1.3-0.2-1.6
			l0.4,1l-0.2-1.2l0.7,1.2l0.1-0.3c-0.1,0-0.3-0.4-0.5-0.7c0.1-0.6,1,0.5,1.2,1.1l0.3-1.1c0.2,0.4,0.1,0.6,0.1,0.9
			c-0.1-1.2,0.5,1.1,0.4,0c-0.1-0.2-0.2-0.7-0.3-0.9c0.4,0.6,0.8,0.5,1,0.2l0.2,0.8c0.6,0.1,0.9-0.7,1.5-0.8
			c-0.3-0.3-0.8-1.7-0.6-1.9l0.5,1.2c-0.1-0.8-0.3-0.4-0.4-1.4c0.3,0.1,0.6,1.4,0.6,1.8l0.1-0.5c0.1,0.4,0.1,0.6,0.3,1
			c-0.1-0.8,0.8,1.1,0.6-0.2l0.1,0.4c0.6-0.1,0.7-0.6,1.1-0.8c-0.3-1.1-0.1-0.9-0.2-1.8c0.4,0.3,1.1,1.1,1.4,0.9
			c0.1-0.6-0.2-1-0.2-1.7c0.3,1,0.7,0.8,0.7,1.6c0.4-0.3,0.6-0.3,1-1.3c-0.2-0.4-0.3-0.6-0.3-0.9c0.1-0.2,0.4,0.4,0.5,0.9l0,0.1
			c0.3-1.8,2.3,2.8,2.4,0.5l0,0.1l0.3-1.3c0.3,0.1,0,0.8,0.3,1.5c0.3-1.9,1,0.1,1.3-1.2c0.9,3.1,1.4-0.4,2.2,1.6l-0.1-0.8
			c0-0.8,0.2,0.4,0.3,0.6c-0.1-0.6-0.2-0.7-0.2-1.1c0.5-0.5,1.2-0.3,1.8,0.1c0.3,0.2,0.7,0.4,1,0.7c0.3,0.2,0.6,0.5,1,0.6
			c0.4,0.2,0-3.9,0.7-2.2l-0.1,1.4c0.8-1.8,1.8-0.1,2.6-1.6c0,0.3,0,0.7-0.1,0.7c0.2,1,0.7,0,0.7-0.8c0.1,0.1,0,0.7,0.1,1.2
			c0.2,0.6,0.5-1.3,0.6-0.3c0,0.2-0.1,0.3-0.1,0.4c0.1-0.5,0.6,0.1,0.4-1c0.3,0.5,0.6-0.5,0.9,0.1c0.2-1.3,0.6,0.6,0.6-1.2
			c-0.1,1.9,0.5,1.5,0.8,0.6c-0.1,0.6,0.2,0.6,0,1.3c0.2,0,0.5-0.4,0.5-1.3c0.3,2.2,1-1.7,1.1,1c0.8-1,1.5-1.6,2.2-2
			c-0.2,1.7-0.7,0.2-0.9,2c0.7-0.8,1.2-2.2,1.7-1.8c0.1,0.2-0.2,0.7-0.3,1c0.7-0.7,1.2,0.2,1.8-0.7c0,0.2-0.1,0.3-0.2,0.4
			c0.1,0,0.2,0.3,0.3-0.5l-0.1,0.2c0-1.1,0.7-2.2,0.8-2.8c-0.5,2.1,0.5,0.6-0.2,3.2c0.1-0.1,0.2-0.5,0.3-1c0.1,0.1,0.1,0.4-0.1,1
			c0.4-0.4,0.4-1.2,0.8-1.1c-0.1,0.4-0.1,0.5-0.2,0.9c0.3-0.7,0.6-1.3,0.8-1c-0.1,0.2-0.1,0.5-0.1,0.5c0.5-0.1,1.2-1.7,1.6-1
			c-0.4,1.4,0.1,0.5-0.1,1.8l0.4-0.3l0-0.6c0.3,0,0.7-0.8,0.8-0.4l-0.3,0.5l0.5-0.2l-0.2-0.5c0.4-0.6,0.3-1.5,0.6-1.1
			c-0.1,0.1,0.3,0.1,0.3,0.8l0,0c0.2-0.4,0.4-0.7,0.6-0.4c0,0.4-0.3,1.3-0.3,1.5c0.3-1,0.7-0.2,1.1-1.2c-0.1,0.2-0.2,0.8-0.3,0.9
			l0.3-0.8c0.1,0.3,0.1,0.4-0.1,0.9c0.3,0.2,0.2-1.4,0.5-0.8c0,0.1-0.1,0.2-0.2,0.3c0.4,0.4,1-0.3,1.3,0.1c-0.1,1.1-0.4,0.2-0.5,1.1
			c0.6-0.1,1.5-1,2-0.7l-0.1-0.1c0.5-1.4,0.2,0.8,0.7,0.2c-0.1,0.1-0.3,0.7-0.2,0.6c0.3,0.3,0.9-0.2,1.6-0.5l-0.2,0.3
			c0.1,0.3,0.6,0.3,0.8,0.5c0.2-0.3,0.3-0.2,0.3-0.7c0.1,1,0.6,0.8,1,0.6c0.4-0.2,0.9-0.3,1,0.4c-0.1,0-0.3,0.2-0.2,0.2l0.7-0.1
			c0.1-0.4,0-0.3,0-0.6c0.2-0.2,0.4-0.4,0.5-0.3c-0.4,0.2-0.2,0.7-0.2,0.9c0-0.1,0.1-0.3,0.1-0.4c0,0.8,0.3-0.8,0.6-0.2l-0.1,0.2
			c0.2-0.1,0.4-0.3,0.6-0.2c-0.1,0.5-0.2,0.2-0.4,0.5c0.2,0,0.8-0.7,0.8-0.2c-0.1,0.1-0.3,0-0.4,0.1c0,0.6,0.1,0.4,0.3,0.6l0,0
			l0.3,0.3l-0.1-0.2c0.7-0.9,0.7,0,1.3-0.5c-0.6,0.4-0.2,0.3-0.4,0.7c0.1,0.1,0.2,0.3,0.1,0.4c0.3-0.3,0.2,0.3,0.7-0.1
			c0,0.1,0.2,0.1,0,0.3c0.3,0,0-0.2,0.1-0.3c0.3-0.1,0.4,0,0.6,0.2c0.2,0.2,0.4,0.3,0.8,0.1c0.5,0,0.7-0.3,1.2-0.2
			c0.1,0.2-0.2,0.2-0.2,0.2c0.2,0.2,0.4,0.2,0.6,0.2c-0.1,0,0,0.1,0,0.2c0.2,0,0.2-0.2,0.4,0c-0.1,0-0.2,0.1-0.3,0.1
			c0.2,0,0.5,0,0.7,0c0,0.1-0.2,0.1-0.3,0.1c0.3,0,0.7,0.1,0.8,0.1l-0.1-0.1c0.1,0,0,0.1-0.1,0.1c-0.2,0-0.3-0.1-0.3-0.2l0.2,0
			c0-0.3-0.6-0.2-0.9-0.3l0.2-0.2c-0.1,0-0.3,0-0.4,0.1c0-0.1,0-0.3,0.1-0.2c-0.1-0.2-0.2,0-0.3-0.2c0,0,0,0,0,0c-0.1,0-0.2,0-0.2,0
			c0.1,0,0.1-0.2,0.2-0.1c-0.3-0.4-0.7-0.1-0.7-0.4l0,0c-0.6-0.1-0.2,0.2-0.7,0.4l0-0.8l-0.2,0.3c0,0-0.1-0.1-0.1-0.2
			c-0.3,0.1,0,0.2-0.2,0.3c-0.1-0.4-0.8-0.1-0.6-0.7c-0.2,0.2,0.2,0.3-0.2,0.4c0.2-0.7-0.4,0-0.5-0.4c0.2-0.3,0.4,0,0.2-0.5
			c-0.4,0.5-0.4-0.4-0.6-0.3c-0.2,0.5-0.5,0-0.9,0c0.1-0.2-0.5-0.6-0.7-1l0-0.1c-0.3,0.6-0.6,0.4-0.8,0.4c0.1-0.4,0.2-0.5,0.4-0.7
			L649,276c-0.1,0.2-0.2,0.3-0.4,0.3l0.2-0.5c-0.3-0.1-0.8,0.3-1.1-0.2c-0.2,0.5-0.2,1.5-0.7,1.8c0.1-0.3,0.2-0.8,0.4-0.9
			c0,0-0.2,0.2-0.2,0l0.3-0.4c-0.1-0.3-0.2,0.4-0.3,0.3c0.1-0.4,0-0.3,0.1-0.7c0,0,0.1,0.2,0.2,0.1c-0.1-0.1-0.2-0.5-0.2-0.8
			c-0.1,0.2-0.2,0.6-0.3,0.6c-0.3-0.1,0.1-0.6,0-0.8c-0.2,0.3-0.3-0.1-0.5,0.5c-0.1,0,0-0.4,0-0.5c-0.2,0.2-0.7-0.2-0.8,0.6l0,0.1
			c0,0,0,0,0,0l0,0l0,0c-0.7,0.5-0.9-0.8-1.5-0.6l0.1-0.3c-0.4,0.2-0.7-0.1-1.1,0.4c-0.1,0-0.1-0.5,0-0.9c-0.3,0.1-0.4,0.4-0.6-0.1
			c0.4-0.4,0-0.4,0.3-0.3c-0.2-0.3-0.2-0.8-0.7-0.2c0.3-0.7,0-1-0.2-0.8l0.1,0.6c-0.2,0.1-0.3-0.1-0.5-0.2l0.3-0.9
			c-0.4-1.4-1.6,1.7-1.6-0.5c-0.3,0.7,0.2,0.6-0.1,1.4c-0.3-0.2-0.3-1.8-0.3-1.8c-0.3-0.7-0.7,1.4-1,0.9c0,0.4-0.2,1.4-0.6,1.7
			c-0.3-0.2,0-1.7,0.2-2c0.1,0,0.1,0.1,0.1,0.2c0.1-0.1,0.3-0.2,0.2-0.7l-0.1,0.4c-0.1-0.4-0.5-0.5-0.3-1.1
			c-0.3,0.3-0.2,0.6-0.1,0.9c-0.3-0.7-0.6-0.2-0.9-0.7c0,0.2,0,0.7-0.1,0.7c-0.5-0.6-0.4,0.7-0.8,0.8c-0.1-0.7,0.3-1.5-0.2-1
			c-0.2-0.5,0.1-1.1,0.3-1.4c-0.5,0.7-0.6-0.7-0.8-0.9l0.2-0.3c-0.1,0.2-0.2,0.1-0.3,0.1l0,0.9c-0.1-0.2-0.2-0.2-0.1-0.6
			c-0.2,0.5-0.1,1.4-0.5,2.1c-0.1-0.5-0.5,0.4-0.4-0.8c0.4,0.5,0.1-1.1,0.5-1.2c-0.1,0.1-0.2,0.1-0.3-0.1c0-0.1,0-0.2,0.1-0.3
			c-0.3-1.1-0.4,1.2-0.9,1.1c0.1-0.6,0.1-1.2,0-1.1c0.2,0.1-0.1,1.1-0.3,1.6c-0.2-0.6-0.4,0.3-0.5,0.2l0.1,0.3
			c-0.1,0.6-0.3,0.5-0.5,0.7c0-0.5,0.2-0.3,0.2-0.6c-0.4,1.1-0.4-1.3-0.8-0.6c-0.1-0.5,0.1-1.3,0-1.6c-0.5,0.8-0.3-1-0.8-0.4
			c0,0.9,0.1,0.7-0.3,1.6l0.7-0.5l-0.5,1.2c0.2,0,0.5-0.5,0.6-0.3c-0.3,0.7-0.2,0.5-0.2,1.2c-0.1-1.4-0.6,0.7-0.8-0.2l0.2-2.3
			c-0.4-1.1-0.9,1.1-1.5,0.4l0.2,0.4c-0.2,0.9-0.4,0.1-0.6,0.4c0.1-0.8,0-1.1-0.1-1.6c0,0.6-0.4-0.1-0.6,1.5l-0.2-1.1
			c-0.5-0.5-0.7,2.2-1.1,1.9c0.2-0.9,0-1.4,0.3-2c-0.2,0-0.3-0.2-0.3,0.4c-0.1-0.5-0.5,1-0.6,0.3c-0.1,0.3-0.1,1.2-0.3,1.1
			c0-0.2,0-0.4,0-0.4c0,0.4-0.3,0.5-0.2,1.4c-0.4-2.5-1.3,0.2-1.7-2c-0.3,0.3-0.7,0.5-1,0.6c0-0.2,0-0.4,0.1-0.3
			c-0.4-0.8-0.2,2.4-0.7,1.5c-0.3-1.3,0.2-0.7,0.1-1.2c-0.1-2.7-0.6,0.4-0.9-1.2l0.1-0.2c-0.3-0.9-0.6,1.1-1,0.9c0,0,0-0.2,0-0.4
			c-0.2,1.4-0.7,1.9-1.1,2.3c0.1-1.1,0.1-0.6,0-1.7c-0.2,0.2,0.1,1.8-0.2,2.1c-0.1-0.6-0.4-1.1-0.5-2.3l0.3-0.1
			c-0.3-1.5-0.4,0.1-0.6-0.2l0-0.7c-0.5,0.2-0.4,1.9-0.9,1.8l0.1,0.5c-0.1,1.7-0.3-0.9-0.5,0.3l-0.2-1.7c-0.2,0.4-0.5,1.7-0.8,2.1
			c0.1-1.3,0.4-2,0.6-2.7c-0.2,0-0.6,0.2-0.7,1c0.1-0.2,0.1-0.6,0.2-0.3c-0.1,1.4-0.3,2-0.7,2.1c-0.3-3.3-1.1-0.7-1.7-3.2
			c-0.5,1.3-1.4-0.4-2.2,0c0.7,2.5-0.2,0.1,0.3,2.7c-0.2,0.2-0.2,0.2-0.3,0l-0.8-1.4c-0.3-0.7,0.1-0.6,0-1.2
			c-0.4-0.1-0.4-1.1-0.8-1.7c0.2,0.9,0.1,1.3-0.2,1l0.5,1.1c-0.3,1.5-0.9-2-1.2-0.6l0-0.8c-0.2,0.5-1.1,0.2-1,2.3
			c-0.1-0.3-0.3-1-0.2-1.2c-0.4-0.1-0.7,0.6-0.9,1.1c-0.3,0.5-0.5,0.9-0.9,0.4l-0.1-0.6c-0.1,0.2,0.1,1.2-0.3,0.6
			c-0.1-0.3-0.1-0.6-0.2-0.6c0,0.2-0.1,1.2-0.3,0.9l0-0.7c-0.9-0.6-0.6,2-1,2.5c-0.5-1.7-1.2-2.1-1.5-2.3l-0.1-0.2
			c-0.9,0-0.9,1.9-1.4,2.8c-1-1.6-1.7-0.2-2.8-0.8c0.2,0.2,0.4,1.3,0.4,1.5c-0.3-0.2,0,1.3-0.5-0.2l0.1,0c-0.7-1.4-0.8-0.8-1.1-0.7
			l0.7,1.9c-0.9-1.2-1.2-0.7-1.5-0.3c-0.3,0.5-0.5,0.9-1.2-0.1c0,0.5-0.2,0.6-0.1,1.1l-0.4-0.9c-0.5,0-0.8,0-1.2,0.5l-0.2-0.7
			c-0.3,0.1,0.8,2.8,0.6,3l-0.7-1.3c-0.5,0.3-1.6-0.5-1.5,1c-0.1-0.2-0.2-0.6-0.2-0.7c-0.3,0.1-1.3-0.2-0.4,1.4
			c-0.6-1.1-0.6,0.2-0.6,0.9l-0.4-0.8c0.3,1.1,0.4,1.4,0.3,1.9c-0.1-0.1-0.4-0.6-0.2-0.4c-0.5-0.2,0.2,0.8-0.3,0.6l-0.1-0.5
			c-0.3,0.1-0.1,0.3,0,1c0,0.4-0.6,0.1-1-0.5c0.2,0.4,0.3,1,0.1,0.9c-0.2-0.2-0.2-0.4-0.2-0.5c-0.7-0.2-0.2,1.2-0.8,0.7
			c-0.1-0.2-0.2-0.3-0.3-0.4c0.3-0.2,0.6-0.4,0.6-0.3c-0.4-0.6-0.7-0.5-1-1.5c0.1,0.6,0.3,1.9-0.1,1.8c0,0-0.1-0.1-0.2-0.2l0-0.1
			c-0.1,0-0.1,0.1-0.1,0.2c-0.1,0-0.2-0.1-0.3,0c-0.3-0.4-0.4,0-0.6,0.1c0.4,0.6,0.2,0.6,0.6,1c0,0,0-0.1,0-0.2c0,0,0-0.1,0-0.1
			l0,0.1c0.1-0.1,0.2-0.2,0.3-0.3c0.1,0.4,0.1,0.7-0.2,0.5c0.2,0.4,0.3,0.9,0.4,1.1c-0.7-0.7-1.3-0.9-1.7-1.4
			c-0.2,0.6-0.7,1-0.3,2.2c0,0.2-0.3-0.2-0.5-0.3c0-0.1,0.1-0.2,0-0.4c0,0.4-0.6,0.6-0.2,1.3c-0.5-0.1-0.3-0.7-0.5-0.3l-0.1-0.2
			c-0.7-0.2-0.7,0.5-0.8,1.1c-0.1,0.6-0.2,1.1-1,0.9c0.1,0,0.1,0,0.2,0.1c-0.6,0.2-1,0.7-1.4,1.2c-0.4,0.5-0.8,0.9-1.4,1.1
			c-0.3,0.2-0.2,0.4-0.2,0.7l-0.2-0.2c0,0.2,0,0.3,0,0.5c-0.2,0.5-1,0.2-1.1,0.9l0.1,0c-0.2,0.1-0.4,0.6-0.5,0.4c0,0,0,0.1-0.1,0.2
			l0,0c-0.1,0.2-0.2,0.3-0.3,0.5c-0.3,0.3-0.1-0.2-0.4,0.3c-0.1,0.2-0.4,0.6-0.3,0.5c0.1-0.1,0.2-0.2,0.2-0.2l-0.1,0.1
			c0,0-0.2,0.1,0.3-0.1c0.1-0.1,0.2-0.1,0.3-0.2l0.1,0l-0.3,0.1c0.2-0.1,0.3-0.1,0.4-0.2c0,0,0.1,0,0.2,0c0.1-0.1,0.2-0.2,0.2-0.3
			c0.1,0-0.1,0.2,0.2,0.1c0.1-0.1-0.2,0,0-0.2c0.2,0,0.2,0.1,0.3-0.1c0.1,0,0,0.1,0,0.1c0.1-0.1,0.4-0.2,0.4-0.4
			c0.3,0,0.5-0.3,0.7-0.1c0-0.1,0.1-0.3,0.2-0.4c0,0.5,0.6-0.3,0.8,0.2c-0.1-0.4,0.6-0.5,0.8-0.9c0,0,0,0.1,0,0.1
			c0.2-0.1,0.4,0,0.6,0.1c-0.3-0.4,0-0.6-0.1-1c0.5,0.3,0.2,0.6,0.6,0.9c-0.3-0.3,0.2-0.5-0.1-0.8c0.4,0.2,0.3,0,0.6,0.4
			c-0.4-0.6,0.1-0.2,0-0.6c0.5,0.2,0.5,0.5,0.6,0.2C584.3,288.8,584.2,289.1,584.2,289.1z M590.2,284.5
			C590.2,284.5,590.2,284.5,590.2,284.5c0,0.1-0.1,0.1-0.1,0.1C590.1,284.6,590.2,284.6,590.2,284.5z M590.8,284.2
			c-0.1,0-0.2,0-0.3,0.1c-0.2-0.2-0.3-0.5-0.2-0.5C590.4,284,590.6,284.1,590.8,284.2z M586.9,280.5c0-0.2,0.1-0.1,0.2,0.1
			c0,0-0.1,0.1-0.1,0.2c0,0,0,0.1,0,0.1C587,280.7,587,280.6,586.9,280.5z"/>
		<path d="M587.3,281.5C587.3,281.5,587.3,281.5,587.3,281.5c0,0.1,0.1,0.1,0.1,0.2C587.4,281.6,587.4,281.5,587.3,281.5
			L587.3,281.5z"/>
		<path d="M645.7,275.3L645.7,275.3C645.7,275.4,645.7,275.4,645.7,275.3C645.7,275.4,645.7,275.4,645.7,275.3z"/>
		<polygon points="599.6,282.7 599.5,282.5 599.6,282.7 		"/>
		<path d="M648.5,278.4c0,0,0,0.1,0,0.1C648.5,278.5,648.5,278.5,648.5,278.4z"/>
		<path d="M650,278.9l0.2,0.2C650.1,279,650,278.9,650,278.9z"/>
		<path d="M651,279.4c0-0.1,0.1-0.1,0.1-0.2l0,0L651,279.4z"/>
		<path d="M632.6,277.7C632.5,277.7,632.5,277.7,632.6,277.7C632.4,277.9,632.5,277.9,632.6,277.7z"/>
		<path d="M638.4,276c-0.1,0.2-0.2,0.3-0.3,0.4C638.2,276.4,638.3,276.5,638.4,276z"/>
		<path d="M626.6,278.9L626.6,278.9C626.5,278.9,626.5,278.9,626.6,278.9L626.6,278.9z"/>
		<path d="M637.9,276.3c0.1,0.2,0.2,0.2,0.3,0.1C638,276.3,638,276.2,637.9,276.3z"/>
		<path d="M656.1,280.7L656.1,280.7C656.1,280.7,656.1,280.7,656.1,280.7L656.1,280.7z"/>
		<path d="M656.1,280.7L656.1,280.7C656.2,280.7,656.1,280.7,656.1,280.7z"/>
		<path d="M656.3,280.7l-0.1,0C656.2,280.7,656.3,280.7,656.3,280.7z"/>
		<path d="M654.5,280.2L654.5,280.2C654.5,280.3,654.5,280.3,654.5,280.2z"/>
		<path d="M654.1,280.1c0.1,0,0.2,0.2,0.4,0.2l0-0.1C654.4,280.4,654.2,280,654.1,280.1z"/>
		<path d="M652.7,278.2l0.3,0.3c0-0.1,0-0.4,0.1-0.3C652.9,277.6,653.1,278.5,652.7,278.2z"/>
		<path d="M651.6,277.5c0.2,0,0.1-0.2,0.1-0.3C651.6,277.2,651.5,277.2,651.6,277.5z"/>
		<path d="M643.2,273.8l0.2-0.7C643.2,273.2,643.3,273.4,643.2,273.8z"/>
		<polygon points="640.6,277.1 640.6,277.6 640.9,276.9 		"/>
		<polygon points="640.8,271.5 640.9,271.4 640.6,271.6 		"/>
		<path d="M625.1,268.8l0,1.3C625.2,269.9,625.3,268.4,625.1,268.8z"/>
		<path d="M618.2,270.2c-0.1-0.7-0.4-1.1-0.4-0.4C618,269.9,618.2,270.4,618.2,270.2z"/>
		<polygon points="597.7,273.4 597.7,273 597.6,273.4 		"/>
	</g>
	<g>
		<path d="M693.2,281C693.2,281.1,693.2,281,693.2,281c0.1-0.1,0.1-0.1,0.2-0.1L693.2,281z"/>
		<path d="M694,280.7c0.1-0.1,0.2-0.3,0.1-0.3c-0.1,0.2-0.1,0.2-0.2,0.3c-0.1,0.1-0.2,0.1-0.2,0.1c0,0-0.2,0.1-0.2,0.2
			C693.6,280.8,693.8,280.8,694,280.7C694,280.6,694,280.6,694,280.7z"/>
		<path d="M705.7,277.4l-0.1-0.1C705.7,277.3,705.7,277.4,705.7,277.4z"/>
		<path d="M713.2,276.6c-0.1,0-0.1,0.1,0,0.2C713.2,276.7,713.2,276.7,713.2,276.6z"/>
		<path d="M714.6,277.7C714.6,277.6,714.6,277.6,714.6,277.7C714.6,277.7,714.6,277.7,714.6,277.7z"/>
		<path d="M705.7,277.4l0.3,0.2C705.9,277.3,705.8,277.4,705.7,277.4z"/>
		<path d="M695.3,279.5c0,0-0.1,0.1-0.1,0.1L695.3,279.5L695.3,279.5z"/>
		<path d="M702.7,278.7L702.7,278.7c-0.1,0.1,0,0.2,0,0.3L702.7,278.7z"/>
		<path d="M700.2,279.3c0.1,0-0.1-0.4-0.1-0.6c0,0.2,0,0.3,0,0.3C700.1,279.1,700.2,279.2,700.2,279.3z"/>
		<path d="M696.1,279.9L696.1,279.9C696.1,279.9,696.1,279.9,696.1,279.9z"/>
		<path d="M704.5,278.4c0,0.1,0.1,0.2,0.1,0.2C704.6,278.6,704.5,278.5,704.5,278.4z"/>
		<path d="M771.9,289.2C771.9,289.2,771.9,289.2,771.9,289.2C771.9,289.2,771.9,289.2,771.9,289.2z"/>
		<polygon points="773.5,291.8 773.5,291.8 773.5,291.8 		"/>
		<path d="M717.1,278.8C717.1,278.8,717.1,278.8,717.1,278.8C717,278.9,717.1,278.8,717.1,278.8z"/>
		<path d="M737.2,279c0-1.1,0.6-1.3,0.5-2.5C737.6,276.9,737.1,278.3,737.2,279z"/>
		<path d="M695.4,279.5L695.4,279.5C695.4,279.4,695.4,279.4,695.4,279.5z"/>
		<path d="M737.7,276.5L737.7,276.5l0-0.1C737.7,276.4,737.7,276.4,737.7,276.5z"/>
		<path d="M722.1,278.1c0-0.2-0.1-0.3-0.1-0.5C722.1,277.7,722.1,277.8,722.1,278.1z"/>
		<path d="M718.1,276.7l0.1,0.1C718.2,276.7,718.2,276.7,718.1,276.7z"/>
		<path d="M724,276.4c0.1,0.1,0.1,0.2,0.1,0.1c0-0.1,0-0.1,0-0.1C724.1,276.6,724.1,276.6,724,276.4z"/>
		<path d="M726.1,276.5c0-0.1,0-0.2,0-0.2l-0.1,0.1L726.1,276.5z"/>
		<path d="M767.4,283.9c-0.1,0.2-0.1,0.3-0.2,0.5C767.4,284,767.7,284.1,767.4,283.9z"/>
		<path d="M695.3,279.6c0,0,0-0.1,0-0.1L695.3,279.6C695.3,279.5,695.3,279.6,695.3,279.6z"/>
		<path d="M723.8,267.4c0.1,0,0.3,0.1,0.4,0.1C724.1,267.5,723.9,267.4,723.8,267.4z"/>
		<path d="M753.9,274.2l0.1-0.1C754,274.1,753.9,274.1,753.9,274.2z"/>
		<path d="M725.3,267.3c0.1,0.4,0.1,0.6,0.2,0.8c0-0.1,0-0.2,0-0.3L725.3,267.3z"/>
		<path d="M767.2,284.4L767.2,284.4L767.2,284.4z"/>
		<path d="M769.5,285.2c-0.2-0.3-0.4,0.3-0.7,0.5c-0.4-0.2,0.1-0.5,0.2-0.8c-0.3-0.1-0.7,0.2-0.9,0.1c0.1-0.1,0-0.2,0.2-0.2
			c-0.5,0.2-0.6-0.6-1.2-0.2c0-0.1,0-0.1,0.1-0.2c-0.2,0.3-0.4,0.6-0.5,0.8c-0.1-0.1-0.5,0.2-0.3-0.2c0.1,0.1,0.2-0.1,0.3-0.2
			l-0.2,0.1c0.3-0.6,0.3-0.1,0.6-0.5c-0.4,0-1,0.2-1-0.1c0.4-0.6,0.6,0.2,0.7-0.5l0.1,0.5c0.4-1.1,0.1,0.2,0.6-0.9
			c-0.2-0.5-0.6-0.1-0.8-0.6c-0.3,0.3-0.3,0.5-0.6,0.8c-0.9,0.2,0.6-1.9-0.3-1.5c-0.4,0.3-1,1.1-1,0.5l0.6-0.7
			c-0.3-0.4-0.9,0.9-1,0.1c0.3-0.3,0.5,0,0.5-0.2c0.1-0.8-0.5,0.3-0.7,0.1l0.4-0.7c-0.5-0.2-1.2,0-1.8-0.2c0.2-0.2,0.4-0.4,0.4-0.7
			c-0.8-0.1-1.2-1-1.4-2l-0.6,0.6c0,0,0.1-0.4,0.2-0.5c-0.1-0.4-0.3,0.5-0.6,0.7c-0.2,0,0.1-0.6,0.3-0.7c-0.8,0.4-1.9,0.7-1.9-0.5
			l0.2-0.2c-0.2-0.6-1.3,1.5-1.2,0.5l0.1-0.1c-0.5-0.8-1.7-0.5-1.7-2.2c-0.7,1.3-0.5-1-1.4,0.8c0-1.2,0.3-1.4-0.1-2.4
			c-0.1-0.2-0.8,1.1-1.1,1.2l0.4-1l-0.7,0.9l0.4-1.3l-0.3,0.2c0.1,0.1,0,0.6-0.2,0.8c-0.5,0.3-0.4-1.1-0.2-1.6
			c-0.4,0.2-0.7,0.4-1.1,0.6c0.2-0.4,0.4-0.5,0.6-0.8c-0.8,0.9,0.4-1.2-0.4-0.3c0,0.3-0.3,0.6-0.4,0.9c0.1-0.7-0.3-0.9-0.7-0.8
			l0.3-0.7c-0.5-0.5-1.3-0.2-1.9-0.4c0.1,0.5-0.4,1.8-0.6,1.9l0.3-1.2c-0.4,0.7,0,0.5-0.5,1.4c-0.2-0.2,0.3-1.4,0.6-1.8l-0.4,0.3
			c0.1-0.4,0.2-0.5,0.4-1c-0.4,0.7-0.1-1.4-0.7-0.2l0.1-0.4c-0.6-0.3-1,0.1-1.6,0c-0.3,1.1-0.5,0.8-0.9,1.6
			c-0.3-0.5-0.4-1.5-0.9-1.5c-0.5,0.5-0.4,0.9-0.7,1.5c0.3-1-0.2-1.1,0.2-1.7c-0.6,0-0.8,0-1.7,0.6c0,0.4,0,0.7-0.1,1
			c-0.2,0.1-0.2-0.5,0-1l0.1-0.1c-0.6,0.7-0.8-0.2-1.1-1c-0.3-0.8-0.6-1.5-1.1-0.5l0.1-0.1l-0.9,1c-0.3-0.2,0.3-0.8,0.2-1.5
			c-1.1,1.6-1.1-0.5-1.9,0.6c0.1-3.3-1.7-0.1-2-2.2l-0.1,0.8c-0.3,0.7-0.1-0.5-0.2-0.6c-0.1,0.6,0.1,0.7-0.1,1.1
			c-0.7,0.4-1.4,0-2.1-0.6c-0.7-0.6-1.3-1.3-2-1.7c-0.5-0.2-0.6,3.9-1.1,2.1l0.3-1.4c-1.1,1.6-2.2-0.1-3.2,1.3
			c0.1-0.3,0.1-0.7,0.2-0.7c-0.2-1-0.8,0-0.8,0.8c-0.2-0.1,0-0.7-0.1-1.2c-0.2-0.6-0.6,1.3-0.7,0.3c0-0.2,0.1-0.3,0.1-0.4
			c-0.1,0.5-0.7-0.1-0.5,1.1c-0.4-0.5-0.7,0.5-1-0.1c-0.2,1.3-0.7-0.6-0.7,1.2c0-1.9-0.7-1.5-0.9-0.6c0.1-0.6-0.2-0.6-0.2-1.3
			c-0.3,0.1-0.5,0.4-0.4,1.4c-0.6-2.1-0.9,1.9-1.3-0.9c-0.8,1.1-1.4,1.8-2.1,2.3c-0.1-1.7,0.8-0.3,0.6-2.1c-0.6,0.8-0.9,2.4-1.6,2.1
			c-0.2-0.2,0-0.8,0-1.1c-0.6,0.8-1.3,0.1-1.8,1.1c0-0.2,0-0.3,0.1-0.5c-0.1,0.1-0.3-0.2-0.2,0.6l0.1-0.2c0.3,1.1-0.2,2.4-0.1,2.9
			c-0.1-2.2-0.7-0.4-0.7-3.2c-0.1,0.2-0.1,0.5,0,1c-0.1-0.1-0.2-0.4-0.2-1c-0.4,0.5-0.1,1.2-0.5,1.3c-0.1-0.4,0-0.5,0-0.9
			c-0.1,0.7-0.2,1.5-0.5,1.2c0-0.2-0.1-0.5,0-0.5c-0.5,0.2-0.6,2-1.3,1.5c-0.1-1.5-0.3-0.4-0.5-1.7l-0.3,0.5l0.2,0.6
			c-0.3,0-0.4,1-0.7,0.7l0.1-0.6l-0.5,0.4l0.4,0.4c-0.2,0.7,0.3,1.5-0.1,1.3c0-0.1-0.3,0-0.6-0.6l0,0c-0.1,0.4-0.1,0.8-0.4,0.6
			c-0.1-0.4-0.2-1.3-0.3-1.5c0.1,1-0.6,0.5-0.5,1.5c0-0.3-0.1-0.8-0.2-1l0.1,0.8c-0.2-0.2-0.2-0.3-0.3-0.8c-0.4,0,0.4,1.4-0.1,0.9
			c0-0.1,0-0.2,0-0.3c-0.5-0.2-0.8,0.7-1.3,0.5c-0.4-1,0.3-0.4-0.1-1.2c-0.6,0.4-0.9,1.7-1.5,1.6l0.1,0.1c0.3,1.4-0.6-0.5-0.7,0.2
			c0-0.1-0.1-0.8-0.1-0.6c-0.4-0.1-0.7,0.6-1.2,1.2l0-0.4c-0.3-0.2-0.6,0.1-0.9,0c0,0.3-0.1,0.3,0.1,0.8c-0.6-0.7-0.9-0.3-1.2,0.1
			c-0.3,0.4-0.5,0.8-1.1,0.3c0.1,0,0.1-0.3,0-0.3l-0.5,0.5c0.2,0.4,0.2,0.2,0.4,0.5c0,0.3-0.1,0.5-0.2,0.6c0.2-0.4-0.2-0.7-0.4-0.9
			c0.1,0.1,0.1,0.3,0.1,0.4c-0.5-0.6,0.2,0.8-0.3,0.5l-0.1-0.2c-0.1,0.2-0.2,0.5-0.3,0.5c-0.2-0.4,0.1-0.3,0-0.6
			c-0.2,0.1-0.1,1-0.5,0.7c0.1-0.2,0.2-0.2,0.2-0.4c-0.4-0.4-0.4-0.3-0.6-0.3l0,0l-0.5,0l0.1,0.1c0.1,1.2-0.5,0.5-0.6,1.3
			c0.1-0.7-0.1-0.4-0.2-0.8c-0.1-0.1-0.3-0.1-0.3-0.2c-0.1,0.4-0.4-0.1-0.4,0.5c-0.1-0.1-0.2,0.1-0.3-0.2c-0.2,0.2,0.1,0.2,0.2,0.3
			c-0.2,0.5-1,0.1-1.3,0.8c-0.4,0.4-0.3,0.7-0.7,1c-0.2,0,0-0.3,0-0.3c-0.3,0-0.4,0.1-0.6,0.3c0-0.1,0-0.1-0.1-0.1
			c-0.2,0.1,0,0.3-0.3,0.3c0-0.1,0-0.2,0.1-0.3c-0.2,0.2-0.3,0.4-0.5,0.5c-0.1,0,0.1-0.2,0.1-0.3c-0.2,0.2-0.5,0.4-0.6,0.5l0.2-0.1
			c-0.1,0-0.1,0,0-0.1c0.1-0.2,0.3-0.1,0.3-0.1l-0.1,0.1c0.3,0.2,0.6-0.3,0.8-0.5l0,0.3c0.1-0.1,0.1-0.2,0.2-0.3
			c0.1,0,0.2,0.2,0.1,0.3c0.3,0,0.1-0.2,0.4-0.1c0,0,0,0,0,0.1l0.2-0.2c0,0.1,0.1,0.2,0,0.2c0.5,0.1,0.5-0.5,0.8-0.2l0,0
			c0.5-0.3-0.1-0.3,0.2-0.8l0.6,0.6l-0.1-0.3c0.1,0,0.2,0,0.2,0.1c0.1-0.3-0.1-0.1-0.1-0.4c0.4,0.2,0.7-0.4,0.9,0.1
			c0-0.3-0.3-0.1-0.1-0.4c0.3,0.6,0.3-0.2,0.6,0c0.1,0.4-0.2,0.3,0.1,0.5c-0.1-0.6,0.5,0,0.7-0.2c-0.2-0.5,0.4-0.4,0.6-0.6
			c0,0.2,0.8,0.1,1.2,0.3l0,0.1c-0.2-0.6,0.2-0.6,0.4-0.8c0.1,0.4,0.1,0.6,0.1,0.8l0.2-0.1c0-0.2,0-0.4,0.1-0.5l0.1,0.5
			c0.3-0.1,0.4-0.8,0.9-0.5c-0.1-0.5-0.8-1.3-0.5-1.8c0.1,0.3,0.3,0.8,0.2,0.9c0,0,0-0.3,0.2-0.2l0,0.5c0.2,0.2,0-0.4,0.1-0.4
			c0.1,0.4,0.2,0.3,0.3,0.6c0,0-0.2-0.1-0.2,0c0.2,0,0.5,0.2,0.6,0.5c-0.1-0.2-0.2-0.6-0.1-0.6c0.3-0.1,0.3,0.5,0.5,0.7
			c0-0.3,0.3,0,0.1-0.7c0.1,0,0.2,0.3,0.3,0.5c0.1-0.3,0.7-0.2,0.3-0.9l-0.1,0c0,0,0,0,0,0l0,0l0,0c0.3-0.8,1.2,0.1,1.6-0.3l0.1,0.3
			c0.2-0.3,0.6-0.3,0.7-0.9c0.1,0,0.3,0.4,0.4,0.8c0.2-0.2,0.1-0.6,0.6-0.2c-0.1,0.5,0.2,0.4-0.2,0.4c0.4,0.2,0.5,0.6,0.7-0.2
			c0.1,0.7,0.4,0.9,0.5,0.6l-0.3-0.5c0.1-0.1,0.3-0.1,0.5,0l0.2,1c0.9,1.1,0.7-2.2,1.6-0.2c0-0.7-0.4-0.5-0.5-1.3
			c0.3,0.1,0.9,1.5,1,1.5c0.5,0.5,0-1.6,0.5-1.2c-0.1-0.4-0.4-1.4-0.1-1.8c0.3,0.1,0.7,1.6,0.5,1.9c-0.1,0-0.1-0.1-0.1-0.2
			c-0.1,0.1-0.2,0.3,0,0.7l0-0.4c0.2,0.4,0.6,0.3,0.6,1c0.1-0.4,0-0.6-0.2-0.8c0.5,0.5,0.6,0,1,0.3c-0.1-0.2-0.2-0.7-0.2-0.7
			c0.6,0.4,0.1-0.8,0.5-1c0.3,0.6,0.2,1.5,0.5,0.9c0.3,0.4,0.2,1.1,0.2,1.4c0.2-0.8,0.7,0.5,0.9,0.6l-0.1,0.3
			c0.1-0.2,0.2-0.2,0.2-0.2l-0.2-0.8c0.1,0.1,0.2,0.1,0.3,0.5c0-0.6-0.3-1.4-0.2-2.2c0.2,0.4,0.4-0.5,0.6,0.6
			c-0.5-0.4,0.2,1.1-0.1,1.3c0.1-0.1,0.1-0.1,0.3,0c0,0.1,0,0.2,0,0.3c0.6,1,0-1.3,0.4-1.3c0,0.6,0.3,1.2,0.3,1.1
			c-0.2,0-0.2-1.1-0.1-1.6c0.3,0.5,0.3-0.4,0.4-0.3l-0.2-0.2c0-0.7,0.1-0.6,0.3-0.8c0.1,0.5-0.1,0.4,0,0.6c0.1-1.2,0.6,1.2,0.8,0.4
			c0.2,0.4,0.2,1.3,0.3,1.6c0.2-0.9,0.5,0.9,0.7,0.2c-0.2-0.9-0.2-0.7,0-1.6l-0.5,0.7l0.2-1.3c-0.2,0-0.3,0.6-0.4,0.4
			c0.1-0.7,0.1-0.5-0.1-1.3c0.4,1.3,0.4-0.8,0.8,0.1l0.2,2.3c0.5,1,0.6-1.2,1.2-0.6l-0.2-0.4c0-0.9,0.3-0.1,0.5-0.5
			c0,0.8,0.2,1.1,0.3,1.5c0-0.6,0.4,0.1,0.3-1.5l0.3,1c0.5,0.4,0.4-2.3,0.8-2c-0.1,0.9,0.1,1.4-0.1,2.1c0.1,0,0.3,0.1,0.2-0.4
			c0.1,0.5,0.3-1.1,0.5-0.3c0-0.4,0-1.2,0.2-1.1c0,0.2,0,0.4,0,0.4c0-0.4,0.2-0.5,0.1-1.4c0.5,2.5,1.2-0.2,1.7,2
			c0.3-0.3,0.7-0.5,1-0.6c0,0.2,0,0.4-0.1,0.3c0.4,0.8,0.3-2.4,0.7-1.5c0.2,1.3-0.2,0.7-0.1,1.2c0,2.7,0.5-0.4,0.8,1.2l-0.1,0.2
			c0.2,0.9,0.6-1,0.9-0.8c0,0,0,0.2,0,0.4c0.3-1.4,0.8-1.8,1.2-2.2c-0.2,1.1-0.2,0.6-0.2,1.7c0.2-0.1,0-1.8,0.4-2.1
			c0.1,0.6,0.3,1.1,0.2,2.3l-0.3,0c0.1,1.5,0.4,0,0.5,0.3l-0.1,0.7c0.5-0.2,0.6-1.9,1.1-1.7l0-0.5c0.4-1.6,0.1,0.9,0.5-0.3l-0.1,1.7
			c0.2-0.4,0.8-1.5,1.1-1.8c-0.3,1.2-0.8,1.8-1,2.5c0.2,0,0.6,0,0.8-0.9c-0.1,0.2-0.2,0.6-0.3,0.3c0.3-1.3,0.7-1.9,1.1-1.8
			c-0.4,3.3,0.8,0.9,0.7,3.5c0.8-1.1,1.1,0.6,1.8,0.6c0.2-2.6,0.2,0,0.6-2.6c0.2-0.1,0.3-0.1,0.2,0.1l0.2,1.6c0,0.8-0.3,0.5-0.3,1.1
			c0.3,0.3,0,1.1,0.1,1.8c0.1-0.9,0.4-1.3,0.5-0.9l-0.1-1.2c0.8-1.3,0,2.2,0.8,1l-0.3,0.8c0.3-0.4,0.9,0.2,1.6-1.8
			c0,0.3-0.1,1-0.3,1.2c0.3,0.2,0.7-0.3,1.2-0.7c0.4-0.3,0.8-0.6,0.9,0.1l-0.2,0.6c0.2-0.1,0.5-1.1,0.5-0.4
			c-0.1,0.2-0.2,0.6-0.2,0.6c0.1-0.2,0.6-1,0.6-0.6l-0.3,0.6c0.4,0.9,1.3-1.4,2-1.7c-0.5,1.7-0.2,2.4,0,2.7l-0.1,0.2
			c0.6,0.3,1.6-1.2,2.5-1.6c-0.2,1.9,1.1,1.1,1.4,2.3c0-0.3,0.5-1.2,0.6-1.4c0,0.4,0.8-1,0.3,0.5l0,0c-0.4,1.5,0,1.2,0.2,1.3
			l0.8-1.8c-0.4,2.8,2-0.4,1.4,2c0.3-0.4,0.5-0.3,0.9-0.7l-0.4,0.9c0.3,0.4,0.5,0.5,1.1,0.5l-0.4,0.6c0.3,0.1,1.5-2.5,1.8-2.4
			l-0.5,1.3c0.5,0.2,0.5,1.5,1.5,0.5c-0.1,0.2-0.3,0.5-0.4,0.6c0.2,0.1,0.5,1.1,1.3-0.6c-0.5,1.1,0.5,0.3,1,0l-0.4,0.7
			c0.7-0.9,0.9-1.1,1.4-1.3c0,0.1-0.3,0.6-0.3,0.4c0,0.5,0.6-0.6,0.7-0.1l-0.4,0.4c0.2,0.2,0.3-0.1,0.8-0.6c0.3-0.2,0.4,0.4,0.1,1.1
			c0.3-0.4,0.7-0.8,0.7-0.6c-0.1,0.2-0.3,0.4-0.3,0.4c0.2,0.7,1.1-0.5,1,0.3c-0.1,0.2-0.2,0.3-0.2,0.4c-0.3-0.2-0.6-0.3-0.5-0.4
			c-0.4,0.6-0.1,0.8-0.9,1.6c0.5-0.4,1.5-1.2,1.6-0.8c0,0.1,0,0.1-0.1,0.2l-0.1,0.1c0,0.1,0.1,0.1,0.2,0c0,0.1,0,0.2,0.1,0.3
			c-0.3,0.5,0.2,0.4,0.3,0.5c0.4-0.6,0.5-0.4,0.6-1c0,0.1-0.1,0.1-0.2,0c0,0-0.1,0-0.1,0l0,0c-0.1,0-0.2-0.1-0.4-0.1
			c0.3-0.3,0.6-0.5,0.5-0.1c0.3-0.4,0.6-0.7,0.8-0.9c-0.3,1-0.3,1.6-0.5,2.1c0.6-0.1,1.1,0.2,2.1-0.6c0.2-0.1-0.1,0.4-0.1,0.5
			c-0.1,0.1-0.2,0-0.3,0.1c0.4-0.1,0.8,0.3,1.3-0.4c0.1,0.5-0.6,0.5-0.1,0.6l-0.2,0.2c0.1,0.7,0.7,0.5,1.2,0.3
			c0.6-0.2,1.1-0.2,1.1,0.6c0-0.1,0-0.1,0-0.2c0.3,0.5,0.9,0.7,1.5,1c0.6,0.2,1.1,0.6,1.4,1.1c0.2,0.3,0.4,0.1,0.7,0.1l-0.1,0.3
			c0.2,0,0.3,0,0.5-0.1c0.3,0.1,0.3,0.3,0.4,0.5c0.1,0.2,0.3,0.4,0.6,0.4l0-0.1c0.2,0.1,0.6,0.4,0.5,0.4c0,0,0.1,0,0.2,0.1l0,0.1
			c0.2,0.1,0.3,0.2,0.5,0.2c0.3,0.3-0.2,0.1,0.4,0.4c0.2,0.1,0.6,0.3,0.5,0.3c-0.1-0.1-0.2-0.1-0.2-0.2l0.2,0.1c0,0,0.1,0.2-0.2-0.3
			c-0.1-0.1-0.1-0.2-0.2-0.3l0-0.1l0.2,0.3c-0.1-0.2-0.1-0.3-0.2-0.3c0,0,0-0.1,0-0.2c-0.1-0.1-0.2-0.1-0.3-0.2c0-0.1,0.2,0,0.1-0.2
			c-0.1-0.1,0,0.2-0.2,0.1c-0.1-0.2,0-0.2-0.1-0.3c0-0.1,0.1-0.1,0.1,0c-0.1-0.1-0.3-0.4-0.4-0.4c0-0.3-0.4-0.5-0.2-0.7
			c-0.1,0-0.4-0.1-0.5-0.2c0.5-0.1-0.4-0.5,0-0.8c-0.4,0.1-0.6-0.5-1.1-0.6c0,0,0.1,0,0.1,0c-0.1-0.2-0.1-0.4-0.1-0.6
			c-0.3,0.3-0.6,0.2-0.9,0.3c0.1-0.6,0.5-0.4,0.7-0.8c-0.2,0.3-0.6-0.1-0.7,0.3c0.1-0.4,0-0.3,0.2-0.7c-0.5,0.5-0.2-0.1-0.6,0.2
			c0-0.5,0.4-0.6,0-0.7C769.1,285.2,769.5,285.2,769.5,285.2z M762.6,281.1C762.6,281.1,762.6,281.1,762.6,281.1
			c0.1,0,0.1,0,0.2,0.1C762.7,281.1,762.7,281.1,762.6,281.1z M762,280.7c0.1,0.1,0.1,0.1,0.2,0.2c-0.1,0.2-0.3,0.5-0.3,0.4
			C762,281.2,762,281,762,280.7z M760.5,285.8c-0.1,0-0.1-0.1,0-0.2c0.1,0,0.1,0,0.2,0c0,0,0,0,0.1-0.1
			C760.7,285.7,760.6,285.8,760.5,285.8z"/>
		<path d="M761.2,285.1C761.2,285.1,761.2,285.1,761.2,285.1c0.1-0.1,0.1-0.1,0.1-0.2C761.2,285,761.2,285,761.2,285.1L761.2,285.1z
			"/>
		<path d="M705.6,277.3L705.6,277.3C705.6,277.3,705.6,277.3,705.6,277.3C705.6,277.2,705.6,277.3,705.6,277.3z"/>
		<polygon points="754.7,274.1 754.6,274.4 754.8,274.2 		"/>
		<path d="M701.5,276.4c0,0-0.1-0.1-0.1-0.1C701.5,276.4,701.5,276.4,701.5,276.4z"/>
		<path d="M700.1,277l-0.3,0C699.9,277,700,277,700.1,277z"/>
		<path d="M698.9,277.4c0,0.1,0,0.1,0,0.2l0,0L698.9,277.4z"/>
		<path d="M717.2,269.7C717.2,269.7,717.2,269.7,717.2,269.7C717.3,269.5,717.2,269.6,717.2,269.7z"/>
		<path d="M711.8,273.3c0-0.2,0.1-0.4,0.1-0.5C711.8,272.8,711.7,272.8,711.8,273.3z"/>
		<path d="M723.7,267.4L723.7,267.4C723.8,267.4,723.8,267.4,723.7,267.4L723.7,267.4z"/>
		<path d="M712.2,272.7c-0.1-0.2-0.2-0.1-0.3,0.1C712,272.8,712.1,272.9,712.2,272.7z"/>
		<path d="M694.4,280.1L694.4,280.1C694.4,280.1,694.4,280.1,694.4,280.1L694.4,280.1z"/>
		<path d="M694.4,280.2L694.4,280.2C694.3,280.2,694.4,280.2,694.4,280.2z"/>
		<path d="M694.2,280.3l0.1-0.1C694.3,280.2,694.2,280.3,694.2,280.3z"/>
		<path d="M695.8,279.2L695.8,279.2C695.7,279.2,695.7,279.2,695.8,279.2z"/>
		<path d="M696.2,279c-0.1,0-0.3,0-0.4,0.1l0,0.1C695.8,279,696.1,279.1,696.2,279z"/>
		<path d="M698.5,279.3c-0.1,0-0.3,0-0.4,0c0.1,0.1,0.3,0.2,0.1,0.3C698.8,279.9,698,279.4,698.5,279.3z"/>
		<path d="M699.8,279.2c-0.2,0.1,0.1,0.2,0.1,0.3C700,279.3,700,279.3,699.8,279.2z"/>
		<path d="M708.5,277.3l0.2,0.7C708.8,277.9,708.6,277.7,708.5,277.3z"/>
		<polygon points="709.2,273.2 709,272.8 709.1,273.5 		"/>
		<polygon points="711.5,278.4 711.4,278.5 711.6,278.2 		"/>
		<path d="M725.8,277.5l-0.1-1.3C725.6,276.4,725.6,277.9,725.8,277.5z"/>
		<path d="M732,276.5c0,0.7,0.1,1.1,0.3,0.5C732.2,276.8,732.1,276.3,732,276.5z"/>
		<polygon points="749.6,282.1 749.4,282.4 749.7,282.2 		"/>
	</g>
</g>
<rect x="462.5" y="75.2" class="st0" width="420" height="613"/>
</svg>
